HIERARCHY
ROOT hip
{
	OFFSET 0.000000 0.000000 0.000000 
	CHANNELS 6 Xposition Yposition Zposition Xrotation Zrotation Yrotation
	JOINT abdomen
	{
		OFFSET 0.000000 3.402643 0.000000 
		CHANNELS 3 Xrotation Zrotation Yrotation
		JOINT chest
		{
			OFFSET 0.000000 8.438565 -0.680529 
			CHANNELS 3 Xrotation Zrotation Yrotation
			JOINT neck
			{
				OFFSET 0.000000 10.207942 -0.272212 
				CHANNELS 3 Xrotation Zrotation Yrotation
				JOINT head
				{
					OFFSET 0.000000 3.130431 0.000000 
					CHANNELS 3 Xrotation Zrotation Yrotation
					End Site
					{
						OFFSET 0.000000 3.130435 0.000000 
					}
				}
			}
			JOINT lCollar
			{
				OFFSET 3.470700 6.669187 -0.816635 
				CHANNELS 3 Yrotation Zrotation Xrotation
				JOINT lShldr
				{
					OFFSET 3.198488 0.000000 0.000000 
					CHANNELS 3 Zrotation Yrotation Xrotation
					JOINT lForeArm
					{
						OFFSET 10.139888 0.000000 0.000000 
						CHANNELS 3 Yrotation Zrotation Xrotation
						JOINT lHand
						{
							OFFSET 8.370511 0.000000 0.000000 
							CHANNELS 3 Zrotation Yrotation Xrotation
							End Site
							{
								OFFSET 4.083176 0.000000 0.000000 
							}
						}
					}
				}
			}
			JOINT rCollar
			{
				OFFSET -3.470700 6.669187 -0.816635 
				CHANNELS 3 Yrotation Zrotation Xrotation
				JOINT rShldr
				{
					OFFSET -3.198488 0.000000 0.000000 
					CHANNELS 3 Zrotation Yrotation Xrotation
					JOINT rForeArm
					{
						OFFSET -10.139888 0.000000 0.000000 
						CHANNELS 3 Yrotation Zrotation Xrotation
						JOINT rHand
						{
							OFFSET -8.370511 0.000000 0.000000 
							CHANNELS 3 Zrotation Yrotation Xrotation
							End Site
							{
								OFFSET -4.083176 0.000000 0.000000 
							}
						}
					}
				}
			}
		}
	}
	JOINT lThigh
	{
		OFFSET 5.308129 -1.633274 1.361059 
		CHANNELS 3 Xrotation Zrotation Yrotation
		JOINT lShin
		{
			OFFSET -2.041588 -20.007561 0.000000 
			CHANNELS 3 Xrotation Zrotation Yrotation
			JOINT lFoot
			{
				OFFSET 0.000000 -19.190928 -1.224953 
				CHANNELS 3 Xrotation Yrotation Zrotation
				End Site
				{
					OFFSET 0.000000 -2.449906 4.627600 
				}
			}
		}
	}
	JOINT rThigh
	{
		OFFSET -5.308129 -1.633274 1.361059 
		CHANNELS 3 Xrotation Zrotation Yrotation
		JOINT rShin
		{
			OFFSET 2.041588 -20.007561 0.000000 
			CHANNELS 3 Xrotation Zrotation Yrotation
			JOINT rFoot
			{
				OFFSET 0.000000 -19.190928 -1.224953 
				CHANNELS 3 Xrotation Yrotation Zrotation
				End Site
				{
					OFFSET 0.000000 -2.449906 4.627600 
				}
			}
		}
	}
}
MOTION
Frames: 11
Frame Time: 0.016667
0.292575 41.498215 0.975311 -1.848750 3.289310 3.731950 -17.284599 -2.521890 2.438030 29.040600 -2.376090 0.417064 5.938110 -1.208760 -1.410600 7.809560 3.782630 -0.412204 2.000000 -2.000000 0.000000 -80.252502 -3.708900 -170.919006 50.771999 -0.301310 0.105961 0.044930 -0.009757 -140.408005 -2.000000 2.000000 0.000000 -90.957603 179.778000 5.088440 -52.051300 0.298924 0.107815 -0.054401 -0.000848 -136.619003 -14.128035 0.029359 0.543268 41.381092 2.447612 2.920470 -29.375099 14.198145 8.648234 -14.940352 -5.048837 6.088118 45.769455 -2.471944 -3.096006 -25.693218 -15.488643 -8.121810 
0.290191 41.499626 0.971673 -1.829030 3.201500 3.647980 -17.254700 -2.475750 2.422000 29.079300 -2.317900 0.424124 6.192710 -1.309200 -1.585630 7.985330 3.723030 -0.492545 2.000000 -2.000000 0.000000 -80.203598 -3.747820 -170.860992 50.732899 -0.301382 0.105902 0.044959 -0.010221 -140.574005 -2.000000 2.000000 0.000000 -91.016197 179.699997 5.215580 -52.012199 0.298997 0.107757 -0.054399 0.000355 -137.048996 -14.142114 0.107021 0.471412 41.389591 2.466134 2.917269 -29.492529 14.085507 8.622901 -14.976124 -4.904859 6.194080 45.759026 -2.478405 -3.089006 -25.636534 -15.544167 -8.139277 
0.287979 41.503109 0.971493 -1.799720 3.221070 3.600170 -17.244699 -2.484280 2.454690 29.079201 -2.308240 0.445101 6.299590 -1.271750 -1.732350 8.092910 3.712570 -0.554622 2.000000 -2.000000 0.000000 -80.096199 -3.776890 -170.763000 50.703602 -0.301436 0.105857 0.044971 -0.010412 -140.641998 -2.000000 2.000000 0.000000 -90.947800 179.679993 5.225390 -51.963402 0.299089 0.107685 -0.054402 0.001121 -137.322006 -14.156349 0.069549 0.416304 41.351883 2.445083 2.920129 -29.488504 14.114655 8.641825 -15.076694 -4.918716 6.220956 45.797874 -2.484453 -3.090652 -25.554876 -15.614436 -8.123978 
0.286270 41.508255 0.974750 -1.760660 3.260180 3.571880 -17.264299 -2.510990 2.494740 29.059799 -2.327670 0.452767 5.998220 -0.786858 -1.722280 7.996490 3.927550 -0.546082 2.000000 -2.000000 0.000000 -79.959396 -3.766940 -170.684998 50.664501 -0.301509 0.105798 0.044971 -0.010412 -140.641998 -2.000000 2.000000 0.000000 -90.859901 179.710007 5.205790 -51.924301 0.299163 0.107628 -0.054402 0.001121 -137.322006 -14.177519 0.000065 0.402597 41.301716 2.455612 2.905485 -29.455688 14.280666 8.709950 -15.127940 -4.960253 6.252377 45.807693 -2.483509 -3.090053 -25.575596 -15.574524 -8.123471 
0.286430 41.514301 0.980728 -1.692160 3.240780 3.566570 -17.303801 -2.532400 2.493500 29.030701 -2.356830 0.449642 5.448260 -0.070580 -1.622140 7.763740 4.250690 -0.501379 2.000000 -2.000000 0.000000 -79.871498 -3.688790 -170.675003 50.615700 -0.301599 0.105725 0.044961 -0.010249 -140.584000 -2.000000 2.000000 0.000000 -90.811096 179.778000 5.225160 -51.904800 0.299199 0.107599 -0.054400 0.000629 -137.145996 -14.210916 -0.002389 0.346759 41.263107 2.453413 2.915107 -29.465836 14.345615 8.758510 -15.132999 -4.949938 6.270462 45.739391 -2.480556 -3.090233 -25.652813 -15.487725 -8.091251 
0.288594 41.521130 0.987357 -1.613790 3.162810 3.553650 -17.362600 -2.540740 2.499590 28.992001 -2.434350 0.439795 5.085290 0.255086 -1.576360 7.617720 4.378390 -0.484749 2.000000 -2.000000 0.000000 -79.773903 -3.630240 -170.695007 50.576599 -0.301671 0.105665 0.044954 -0.010139 -140.544998 -2.000000 2.000000 0.000000 -90.752502 179.845993 5.234760 -51.885300 0.299236 0.107570 -0.054399 0.000300 -137.029007 -14.284501 0.052996 0.270752 41.253658 2.446585 2.912833 -29.550304 14.348479 8.785964 -15.199102 -4.869496 6.272403 45.670715 -2.477417 -3.080639 -25.614643 -15.462351 -8.100976 
0.288613 41.527950 0.994148 -1.515930 3.123910 3.511240 -17.401800 -2.567070 2.540810 28.992500 -2.511630 0.447874 4.930510 0.225462 -1.608590 7.568480 4.339740 -0.500657 2.000000 -2.000000 0.000000 -79.656700 -3.591130 -170.675995 50.566898 -0.301689 0.105651 0.044954 -0.010139 -140.544998 -2.000000 2.000000 0.000000 -90.654900 179.914993 5.224830 -51.855900 0.299291 0.107527 -0.054399 0.000410 -137.067993 -14.346361 0.067450 0.225619 41.233330 2.454628 2.906393 -29.596992 14.376855 8.838651 -15.256752 -4.818915 6.286302 45.621456 -2.477525 -3.071947 -25.530323 -15.493061 -8.084777 
0.283121 41.536060 0.999668 -1.427850 3.084980 3.458410 -17.420900 -2.583450 2.608420 29.022200 -2.559730 0.468705 4.757440 0.262693 -1.655660 7.529310 4.340000 -0.513379 2.000000 -2.000000 0.000000 -79.549202 -3.610460 -170.587997 50.518101 -0.301779 0.105577 0.044957 -0.010194 -140.563995 -2.000000 2.000000 0.000000 -90.557198 179.973007 5.185630 -51.826698 0.299346 0.107484 -0.054400 0.000738 -137.184998 -14.424038 0.103496 0.228900 41.204254 2.449274 2.905049 -29.571243 14.451376 8.877678 -15.326119 -4.755546 6.386426 45.573112 -2.473926 -3.081387 -25.515009 -15.564528 -8.094599 
0.275947 41.543777 1.002655 -1.339780 3.046040 3.424990 -17.439800 -2.575300 2.658150 29.071301 -2.598040 0.490043 4.593000 0.408268 -1.674300 7.490530 4.398750 -0.522558 2.000000 -2.000000 0.000000 -79.500397 -3.668820 -170.490005 50.410599 -0.301976 0.105413 0.044963 -0.010276 -140.593994 -2.000000 2.000000 0.000000 -90.508400 -179.977997 5.156220 -51.807098 0.299383 0.107455 -0.054403 0.001230 -137.360992 -14.519435 0.163260 0.251342 41.096825 2.446801 2.906261 -29.464296 14.456532 8.884656 -15.408216 -4.635024 6.559808 45.532864 -2.482953 -3.066332 -25.594376 -15.652299 -8.179431 
0.272116 41.548023 1.003376 -1.251760 3.036390 3.449400 -17.459299 -2.592630 2.695450 29.110800 -2.646060 0.500548 4.457800 0.534244 -1.693230 7.441950 4.457560 -0.532575 2.000000 -2.000000 0.000000 -79.490601 -3.727210 -170.401993 50.293400 -0.302192 0.105235 0.044975 -0.010467 -140.662003 -2.000000 2.000000 0.000000 -90.469299 -179.949005 5.117080 -51.816898 0.299364 0.107470 -0.054408 0.001777 -137.557007 -14.597912 0.175378 0.246382 41.067181 2.453295 2.909152 -29.448767 14.376799 8.834989 -15.459408 -4.549186 6.737473 45.494278 -2.480112 -3.075602 -25.716227 -15.746347 -8.278551 
0.267284 41.549438 1.004645 -1.173520 3.036470 3.482840 -17.508499 -2.625590 2.719080 29.091700 -2.723450 0.499633 4.342670 0.610783 -1.724760 7.393170 4.487130 -0.554180 2.000000 -2.000000 0.000000 -79.422096 -3.707360 -170.264999 50.244598 -0.302281 0.105161 0.045000 -0.010849 -140.798996 -2.000000 2.000000 0.000000 -90.391197 -179.850998 5.038730 -51.846199 0.299309 0.107513 -0.054412 0.002051 -137.654007 -14.617923 0.188571 0.237218 41.009212 2.438845 2.905149 -29.466955 14.291176 8.800120 -15.549247 -4.487899 6.866121 45.494469 -2.475549 -3.073741 -25.800400 -15.817552 -8.329437 
